<?xml version="1.0" standalone="no"?><!DOCTYPE svg PUBLIC "-//W3C//DTD SVG 1.1//EN" "http://www.w3.org/Graphics/SVG/1.1/DTD/svg11.dtd"><svg t="1717070678122" class="icon" viewBox="0 0 1347 1024" version="1.1" xmlns="http://www.w3.org/2000/svg" p-id="9374" xmlns:xlink="http://www.w3.org/1999/xlink" width="42.09375" height="32"><path d="M 411.594 270.444 a 212.345 212.345 0 0 1 -74.4825 161.523 c 7.65305 -1.94021 15.2522 -3.93432 23.2286 -5.65895 a 507.419 507.419 0 0 1 111.993 -12.2341 l 129.832 -178.553 c 35.8939 -49.2598 101.699 -62.7874 147.025 -30.0194 l 20.48 14.7672 c 45.3794 32.8758 52.9785 99.4358 17.1385 148.696 l -156.834 215.687 c -4.1499 3.23368 -8.2459 6.46737 -12.7731 10.8867 c -87.3634 83.5907 -143.198 10.9945 -149.019 111.4 h -0.538947 v 111.454 h 415.151 a 41.4989 41.4989 0 0 1 -41.5528 -41.3373 v -28.8337 c 0 -22.7975 18.5398 -41.2834 41.5528 -41.2834 h 159.798 c 22.9053 0 41.6067 18.4859 41.6067 41.2834 v 28.8337 a 41.4989 41.4989 0 0 1 -41.6067 41.3373 h 135.006 c 51.5773 0 93.3996 -40.96 93.3996 -91.7288 V 92.8606 c 0 -50.6072 -41.8223 -91.7288 -93.3996 -91.7288 H 243.496 c -40.0977 0 -73.9436 24.8994 -87.3095 59.7154 c 13.2581 -2.53305 26.6779 -4.04211 40.5827 -4.04211 c 118.676 0 214.824 95.6632 214.824 213.639 Z M 201.027 416.499 a 142.013 142.013 0 0 0 141.474 -142.605 A 142.013 142.013 0 0 0 201.027 131.288 c -78.1474 0 -141.42 63.9192 -141.42 142.605 S 122.88 416.499 200.973 416.499 Z m 376.67 139.749 c 1.83242 -1.94021 16.0606 -25.8156 17.6775 -27.9714 l 135.869 -189.117 c 16.6535 -23.2286 13.0964 -54.4876 -7.97642 -69.8476 l -9.43158 -7.00632 c -21.0728 -15.4678 -51.7389 -9.05432 -68.3385 14.0665 L 513.779 459.56 l -218.489 28.1869 c -0.538947 0.215579 -0.916211 0.431158 -1.45516 0.538948 a 102.777 102.777 0 0 0 -10.3478 -0.538948 H 149.288 l 428.301 68.5002 Z m -427.547 -68.4463 h -31.6901 A 118.407 118.407 0 0 0 0.538947 606.801 v 297.122 c 0 53.248 34.9777 97.8189 82.7823 112.909 c 7.00632 3.66484 14.8211 5.92842 23.2286 5.92842 h 0.700631 c -0.215579 -0.269474 -0.323368 -0.754526 -0.538947 -1.0779 c 3.82653 0.323368 7.59916 1.0779 11.5874 1.0779 h 165.026 a 118.407 118.407 0 0 0 117.922 -118.838 v -294.05 l 154.57 -37.0796 c 10.7789 -6.41347 17.0846 -10.9945 21.8274 -16.4918 l -427.547 -68.4463 Z m 1145.69 405.504 H 472.28 a 266.563 266.563 0 0 1 -37.8341 129.347 h 861.453 a 49.8526 49.8526 0 0 0 50.0143 -49.7448 V 943.158 a 50.0682 50.0682 0 0 0 -50.1221 -49.8526 Z" fill="#889aa4" p-id="9375"></path></svg>