<?xml version="1.0" standalone="no"?><!DOCTYPE svg PUBLIC "-//W3C//DTD SVG 1.1//EN" "http://www.w3.org/Graphics/SVG/1.1/DTD/svg11.dtd"><svg t="1717070470549" class="icon" viewBox="0 0 1024 1024" version="1.1" xmlns="http://www.w3.org/2000/svg" p-id="5280" xmlns:xlink="http://www.w3.org/1999/xlink" width="32" height="32"><path d="M506.4 398.6c-11.3 0-17 5.2-20.4 12.2-7.4 14.4-8.3 53.1-8.3 90.5s0.9 76.1 8.3 90.5c3.5 7 9.1 12.2 20.4 12.2 11.3 0 17.8-5.2 21.3-12.2 7.4-14.4 8.3-53.1 8.3-90.5s-0.9-76.1-8.3-90.5c-3.5-7-10-12.2-21.3-12.2z" fill="#8A8A8A" p-id="5281"></path><path d="M872.9 180.3H185.5c-48.1 0-87.5 39.4-87.5 87.5v466.8c0 48.1 39.4 87.5 87.5 87.5h687.4c48.1 0 87.5-39.4 87.5-87.5V267.8c0-48.1-39.4-87.5-87.5-87.5zM377.2 656.1h-52.6l-65.7-151.4v151.4h-61.8V346.4H251l64.4 151.4V346.4h61.8v309.7z m197.5-27.4c-14.4 17-33.5 30.9-68.3 30.9s-53.1-13.9-67.4-30.9c-24.8-29.6-23.1-85.7-23.1-127.4s-1.7-97.9 23.1-127.4c14.4-17 32.6-30.9 67.4-30.9 34.8 0 53.9 13.9 68.3 30.9 24.8 29.6 23.1 85.7 23.1 127.4s1.7 97.8-23.1 127.4z m125.7 27.4h-65.2v-65.2h65.2v65.2z m160.5 0h-58.3V414.7l-47.4 33.9v-65.2l47.4-37h58.3v309.7z" fill="#8A8A8A" p-id="5282"></path></svg>